<svg width="1280" height="640" viewBox="0 0 1280 640" fill="none" xmlns="http://www.w3.org/2000/svg">
<path d="M1123.5 43.5C1114.4 45.5 1097.6 52.4 1086.5 58.6C1081 61.7 1069.8 67.8 1061.5 72.2C1053.3 76.5 1045.6 80.9 1044.5 81.9C1042.4 83.7 1019.6 96.3 1001 105.8C995.2 108.8 980 116.6 967.1 123.2C932.1 141.2 929 141.9 920.8 134.5C915.8 130 914 129.5 907 130C902.4 130.3 892.4 135.7 885.4 141.7C859.3 164 833.7 185 828.1 188.6C821.4 192.9 820.8 193.3 813.3 199.2C811 201 807.2 203.7 804.8 205.2C792.5 213 775.7 227.5 752 250.5C742.9 259.4 730.5 271 724.3 276.3C717.5 282.3 712.8 287.2 712.2 289C711.6 290.6 710.8 295.1 710.4 299C709.3 310.3 711.8 311.4 724 305.1C731.3 301.3 734.6 299.3 750 289C770.5 275.3 777.3 270.9 789.4 263.6C805.1 254.1 847.1 232.5 860.1 227.1C865.3 225 879.4 218.9 891.5 213.5C912.7 204.1 917.2 202.3 934.5 195.8C956.7 187.6 967.3 184.4 1006.5 174.6C1031.2 168.4 1067.7 159.9 1073.3 159C1077 158.4 1085.3 156.7 1091.8 155.1C1098.2 153.5 1108.3 151.7 1114.2 151C1120.1 150.4 1127.1 149.3 1129.7 148.5C1136.4 146.4 1155.6 144.9 1174 145.1C1187.1 145.2 1190.8 144.8 1197.5 143C1201.9 141.8 1206.9 140.5 1208.6 140C1210.4 139.6 1212.3 138.9 1213 138.5C1213.6 138.1 1216.5 137.2 1219.3 136.5C1231.9 133.3 1250.3 122.9 1263.1 111.7C1278.9 97.8 1282.7 90.1 1278 81.1C1275.4 75.9 1270.9 72.4 1264.8 70.5C1262 69.7 1259.1 68.5 1258.4 67.9C1256.2 66.1 1230.6 64.7 1211.5 65.3C1194 65.9 1180.6 67.8 1158.9 72.7C1152.5 74.1 1146.6 75 1145.7 74.7C1144.5 74.3 1144.1 71.5 1143.5 62.3C1142.7 49.4 1141.9 47.1 1136.7 44C1133 41.7 1131.8 41.7 1123.5 43.5Z" fill="white"/>
<path d="M155.2 66.3C152.3 67.6 149.5 73.1 148.6 79C146.6 92.2 145.5 92.4 116.7 85.5C85.1 77.9 79.6 77 60.3 76.3C41 75.6 29 76.8 16.9 80.6C9.89998 82.8 9.09998 83.4 5.19998 88.6C0.299979 95.2 -0.500021 98.5 0.299979 109.2C0.799979 116.4 1.19998 117.8 4.49998 122.6C6.59998 125.6 11 129.9 14.5 132.4C17.9 134.9 22.1 138.5 23.9 140.5C31.7 149.4 39.6 153 65 159C70.2 160.2 75.4 161.8 76.5 162.5C77.8 163.4 84.4 164 96 164.4C126.7 165.5 170.4 168.6 183 170.5C188.2 171.4 199.7 173.1 208.5 174.5C224.6 176.9 231.1 178.3 274 188.4C321.6 199.6 335 203.3 359.9 211.6C390.8 222 436.4 240.8 451.1 249.2C454.7 251.3 458 253 458.4 253C459.6 253 480.8 264.9 487.7 269.5C499.8 277.4 507.6 281.8 511 282.8C512.9 283.3 516.7 285.1 519.4 286.9C522.2 288.6 525.7 290 527.4 290C531.1 290 536.1 286.3 536.1 283.5C536.2 279.2 534.1 268.7 532.7 266.7C531.9 265.5 530.7 262.8 530.1 260.7C528.9 257.1 514.4 236.4 493.3 208C481.5 192 443.3 151.9 429.5 140.9C424.6 136.9 418.3 131.8 415.5 129.5C409.5 124.5 404.6 121.9 387.1 114.6C370.7 107.7 368.4 107.5 362.4 113.2C358.3 117.2 357.9 118.1 356.3 126.2C354.8 134.3 354.5 135 352.3 135C349.6 135 331.8 127.5 315.5 119.5C309.5 116.5 300 112.2 294.5 110C289 107.7 282 104.5 279 102.8C272.8 99.5 267.8 97.5 242.7 88.4C232.9 84.9 221.3 81.1 217 80.1C212.7 79 207 77 204.3 75.7C189.4 68.2 162 63 155.2 66.3Z" fill="white"/>
<path d="M1169.3 191.1C1155.8 192.4 1124 200.5 1104.5 207.5C1079.3 216.7 1060 223.4 1054 225.1C1043.6 228 1021.8 235.7 1004.3 242.6C995.4 246.2 985.3 250 981.8 251.1C973.1 254 944 268.2 929.5 276.7C917 284.1 915.2 285.3 899.9 295.9C891.1 302 866.4 317 865.2 317C864.9 317 863.9 317.6 863.1 318.3C862.2 319.1 858.6 320.9 855 322.4C851.4 323.9 845.4 327.3 841.5 329.9C817.9 345.9 792.2 356.1 769.6 358.5C766.3 358.8 761.7 359.6 759.3 360.2C752.3 361.9 731.6 359 722.1 354.9C719.2 353.7 712.2 349.3 706.7 345.2C694.5 336.3 691.5 334.7 689 335.5C686.4 336.3 686.4 339.5 688.9 345.3C690 347.8 690.6 350.7 690.4 351.7C689.5 355.2 704 367.9 715.5 373.7C720.2 376.1 737 381.3 745.3 383C749.2 383.8 751.3 384.7 751.6 385.8C754 394.1 779.7 422.6 794.1 433C796.8 434.9 802 439 805.7 442.1C815.7 450.4 841.5 468.6 855.4 477.2C858.2 478.8 882.2 488.4 892.9 492C901.4 494.9 910.7 497 925.8 499.5C945.6 502.8 948.4 503 969.8 503C1007.2 503 1018 501.4 1048.1 491.2C1066.4 485 1071.4 482.8 1077.8 478.2C1119.9 448.5 1134 431.2 1149 391.5C1156 372.8 1157.2 366.4 1157.7 341.5C1158.1 322.9 1157.8 317.3 1156.1 305.1C1152.5 279.8 1146.9 263.9 1136.5 249C1128.6 237.7 1120.9 225.8 1121.2 225.5C1121.9 224.8 1141.3 220 1151 218.1C1177.8 212.8 1203.5 211.3 1215.3 214.5C1218.5 215.3 1222.2 216 1223.5 216C1227.3 216 1231 212.1 1231.7 207.3C1232.4 202.1 1229.8 197.5 1223.8 193L1219.6 190L1198.6 190.1C1187 190.2 1173.8 190.6 1169.3 191.1ZM1097.9 236C1099.1 237.7 1103.5 241.6 1107.6 244.6C1116.1 250.9 1120.4 256.8 1127.5 271.5C1137.1 291.6 1141 311.5 1141 340.5C1141 357.4 1139.6 366.4 1134.8 380.5C1124 412.2 1112.4 429.9 1090.8 447.3C1059.5 472.4 1032 482 985.9 484C952.4 485.4 932.9 483.1 898.3 473.4C879.7 468.2 868.6 463 845.6 448.5C843.9 447.4 839.9 444.6 836.9 442.2C833.8 439.9 830.9 438 830.3 438C829.8 438 827.6 436.5 825.4 434.7C823.3 432.9 820.3 430.5 818.9 429.5C812.1 424.4 801 415.3 796.7 411.1C791.3 406 778.4 391.1 775.6 386.8C773.6 383.7 773.4 383.8 781.5 382C796.8 378.7 823.1 369.6 829.7 365.3C831 364.4 832.3 363.9 832.5 364.2C832.8 364.4 833.4 371.3 834 379.6C835.4 398.3 837.5 405.9 843.5 414.9C852.1 427.7 863.6 435.8 881.3 441.3C899.7 447.2 906.7 448.8 923.3 451C937.2 452.9 940.4 453.1 949.3 452.1C963 450.6 972.8 449.1 977 447.8C983.9 445.8 999.6 438.7 1003 436C1004.9 434.5 1007.5 432.8 1008.8 432.1C1012.9 429.9 1031.2 413.6 1041 403.4C1058.5 385.3 1063.2 377.4 1069.4 356C1075.6 334.3 1076.3 328.4 1075.8 306.8C1075.3 290.7 1074.9 287.4 1072.6 279.5C1071.1 274.5 1069 268.5 1067.9 266C1066.8 263.5 1065.3 258.3 1064.5 254.5C1063.8 250.6 1062.9 246.8 1062.5 245.9C1062 244.7 1063.3 243.9 1068.5 242.1C1072.2 240.9 1076.8 239.2 1078.8 238.3C1081.9 237 1093.3 233.3 1095.1 233.1C1095.4 233 1096.6 234.4 1097.9 236Z" fill="white"/>
<path d="M150 197.7C147.5 197.9 140.1 198.9 133.5 200.1C126.9 201.2 119.7 202.5 117.5 202.8C112.6 203.7 111 206.5 110.9 214.4C110.8 222.2 114.4 228.5 119.6 229.4C122.6 230 123.9 229.7 127 227.5C130.6 225 131.6 224.8 141.7 224.9C150.2 224.9 155.6 225.7 167.3 228.3C175.4 230.2 182.3 232 182.6 232.3C183 232.6 179.6 237.1 175.2 242.3C160.6 259.2 144.4 287.7 140 304C128.2 347.7 128.4 374.7 140.8 398.4C146.3 408.9 163.4 426.2 177.5 435.5C190.1 443.8 193.2 445.5 201.5 448.6C204.8 449.8 212.7 452.9 219 455.5C229.3 459.8 232.1 460.5 246 462.1C282.8 466.6 299.2 467.6 307.5 466.1C310.8 465.4 319.8 464.2 327.5 463.4C335.2 462.6 344.2 461.3 347.5 460.5C350.8 459.8 355.5 458.9 358 458.5C360.4 458.2 368.5 456.1 376 453.9C383.4 451.6 392.8 449 396.8 447.9C401.4 446.7 410.3 442.8 420.8 437.3C430 432.4 439.2 427.8 441.3 426.9C443.4 426.1 449.5 421.9 454.8 417.8C460.2 413.6 466.8 408.4 469.6 406.2C474.9 402.1 492.8 381.5 497.3 374.4L499.8 370.3L508.7 369.6C520.3 368.7 529.8 366.7 535 364C540.7 361.1 554.3 347.8 557 342.7C558.1 340.4 559.8 337.3 560.7 335.9C562.8 332.5 561.9 328.9 557.6 324.2C554.5 320.9 554 320.7 551.6 321.8C550.2 322.4 547.5 325.1 545.5 327.8C542.3 332.3 541 333.2 531.7 337C521.7 341.2 521.3 341.3 507.3 341.8C492.3 342.3 488.1 341.8 463.4 336.4C456 334.7 451.1 333.1 448.9 331.5C447.1 330.1 444.7 329 443.5 329C442.4 329 437.7 327.2 433.2 325C428.8 322.8 424.8 321 424.4 321C424 321 419.9 318.8 415.1 316.1C410.4 313.4 404 310.2 401 309C398 307.8 393.5 305.6 391 304C388.5 302.4 380.9 298.9 374 296.1C367.1 293.4 358.5 289.5 354.9 287.6C351.3 285.6 344 282.2 338.8 280.1C333.5 277.9 327.5 274.9 325.4 273.5C323.2 272 316.8 268.4 311 265.4C305.2 262.5 298.3 258.2 295.5 256C292.8 253.8 288.6 250.8 286.2 249.2C283.8 247.7 279.5 245 276.7 243.1C260.3 232.2 228.2 218.7 200.5 211.2C196.7 210.1 188.3 207 182 204.3C171.3 199.6 161 196.8 156.4 197.2C155.4 197.3 152.5 197.5 150 197.7ZM211 242.6C214.6 244 227.4 250 239.5 256C251.6 261.9 263.9 267.8 266.8 269C269.6 270.2 272 271.5 272 271.9C271.9 272.2 269.8 274.1 267.3 276C252.1 287.6 240.6 301 233.3 315.7C223.7 335.3 221 351.6 224.9 367.2C231.1 391.9 238.8 403 262.6 421.4C270.2 427.3 288.6 433.9 299.5 434.7C306.2 435.2 332.8 432.9 343 431C352.1 429.3 370.9 420.4 382.4 412.3C391.4 406.1 399.9 395.2 404.1 384.6C406.8 377.7 410.9 363.7 414.1 350.5C414.7 348.3 415.4 346.2 415.8 345.9C417 344.7 426.6 347.8 443.7 354.9C453 358.7 463.4 362.6 467 363.6C470.6 364.5 473.9 365.7 474.4 366.1C476 367.5 473.9 370.5 460.7 384.9C450.3 396.3 446 400.1 438.1 405.4C424 414.6 404.4 424.3 390.5 428.9C359.8 439.1 353 440.7 327.5 444.1C293.3 448.6 283.9 448.7 256 444.9C237 442.2 227.6 440 215.7 435.1C194.3 426.4 185.1 420.7 172.2 408.6C161.2 398.2 156 391.1 151.9 380.8C148.6 372.7 148.5 372.2 148.6 357.5C148.7 327.9 155.2 304.4 171.3 275.3C181.5 256.8 196.3 240 202.3 240C203.5 240 207.4 241.2 211 242.6Z" fill="white"/>
<path d="M158.2 451.2C156.4 453 156.7 457.6 158.9 461.8C162 467.9 174.5 479.1 182.5 482.9C198 490.3 208.8 493.5 228 496.5C246.2 499.3 249.2 500.8 243.7 504.5C235.4 509.9 178 521 158.3 521C151.8 521 150.9 521.2 149.5 523.4C147.5 526.4 146.5 532.1 147.4 535.4C147.7 536.8 149.7 539.1 151.7 540.5C155 542.7 156.5 543 164.2 543C169 543 177.3 542.6 182.7 542C188.1 541.5 202.9 540.1 215.5 539C240.6 536.8 257.2 534.6 266.5 532.3C269.8 531.4 274.8 530.3 277.5 529.8C280.3 529.2 284.1 528.1 286 527.3C287.9 526.5 294.7 524.7 301 523.5C307.3 522.2 314.3 520.4 316.5 519.4C318.7 518.5 327.9 515.6 337 513C357.8 506.9 374.6 499.5 388.1 490.5C394 486.5 400.3 482.8 402.1 482.1C409.1 479.6 413.8 476.8 415 474.5C416.8 471.2 415.7 464.7 412.6 459.9C410.4 456.7 409.4 456 406.7 456C404.8 456 401.5 457.2 398.9 458.8C394.8 461.4 382.4 466 370 469.4C363.7 471.1 348.5 473.4 332 475.1C325.7 475.7 320.2 476.4 319.9 476.6C317.9 477.8 288.9 481.2 276 481.6C260.5 482.2 256.4 481.9 228 477.6C222.8 476.8 215.2 475.7 211.2 475.1C207.2 474.5 202.4 473.2 200.7 472.3C198.9 471.4 194.1 469.2 189.9 467.5C182.6 464.5 175.8 460.2 167.6 453.3C163.5 449.9 160.3 449.1 158.2 451.2Z" fill="white"/>
<path d="M822.8 480.2C820.9 482.9 820.4 485.1 820.2 492.1C819.8 502.2 821.2 508.5 824.3 510.1C825.5 510.8 832.9 516.2 840.6 522.1C861.7 538.1 891.3 557.1 913.3 568.8C923.7 574.4 940.9 581.9 953.7 586.6C967.6 591.7 981.5 593.6 995.6 592.5C1004.8 591.7 1024.9 593.5 1029.9 595.6C1031.7 596.4 1034.3 597 1035.5 597C1038.7 597 1044.2 594.5 1047.9 591.4C1050.6 589.1 1051 588.2 1051 583.7C1051 576.7 1048.5 571.8 1044 570.3C1042.1 569.6 1036.2 569.1 1031 569.1C1025.8 569.1 1019.3 568.7 1016.5 568.1C1010.1 566.8 985.8 560.2 985.2 559.5C983.8 558.1 994.1 555.7 1010.8 553.5C1021.1 552.2 1034.2 550.4 1040 549.5C1045.8 548.7 1053.7 547.6 1057.5 547.2C1069.1 545.7 1092.2 540.9 1096.5 539C1106.3 534.7 1107.9 533.6 1109.5 530.3C1111.4 526.4 1110.9 521.1 1108.4 517.2C1106.8 514.7 1101.3 514.2 1096.4 516C1094.9 516.6 1079.7 518.9 1062.6 521C1036.1 524.4 1028.7 525 1012.5 525C1002 525 989.6 524.5 985 523.9C974 522.6 942.9 516.7 927 513C920.1 511.4 912.5 509.9 910 509.6C903.9 508.9 862.8 495 852.7 490.3C848.2 488.2 841.9 484.4 838.6 481.7C833.9 478 831.9 477 828.9 477C825.8 477 824.7 477.6 822.8 480.2Z" fill="white"/>
</svg>
