<svg width="1065" height="1024" viewBox="0 0 1065 1024" fill="none" xmlns="http://www.w3.org/2000/svg">
<path d="M521.6 -145.8C520.8 -142.9 518.9 -136 517.5 -130.5C516 -125 511.3 -108.1 507 -92.9999C502.7 -77.8999 497.7 -59.8999 496 -52.9999C492.8 -40.4999 482.4 -14.0999 476.9 -4.39991C471.7 4.80009 466.7 9.40009 454.2 16.5001C440.9 24.2001 439.5 25.2001 432.3 32.2001C423.3 40.9001 417.6 51.7001 414.3 66.3001C413 72.3001 412.7 80.2001 412.6 112.6C412.5 156.1 412.7 154.5 405.6 155.7C400.5 156.5 395.1 161.5 394.9 165.7C394.7 170.5 395.1 172.2 398.5 182C400.3 187.3 402.5 195.4 403.5 200C406.1 213.4 409.6 226.5 414.9 243.7C422.7 268.6 422.9 270.7 422.1 309C421.8 321.8 422.1 328.9 423 332C424.4 337.1 429.7 345 431.7 345C436.3 345 438.5 325.5 437.6 293C437.3 279.5 436.7 265.1 436.4 261L435.8 253.5L438.3 256C441.1 258.8 454.5 289.2 460.8 307.2C468.9 330.4 470.2 346.9 464.6 358.1C459.9 367.5 455.4 371.1 443 375.6C431.4 379.8 411.9 388.6 377.3 405.4C336.9 424.9 319 432.7 299.3 439.1C274.7 447.1 274.9 447 269.9 452C257.8 464.1 251.3 487.4 246.5 536C245.7 544.5 244.3 557.1 243.5 564C242.7 570.9 241.6 582 241 588.8C240.4 595.8 238.3 608.8 236 618.8C232.1 636.3 229.5 654.8 226.6 685C220.3 749.9 222.2 768.4 236.7 786.6C243.5 795 248 804.2 254 821.5C256.8 829.7 261.2 840.5 263.7 845.5C266.3 850.4 269.7 857.1 271.3 860.2C276.7 870.7 276.2 879.6 269.9 886.5C265.2 891.6 258.6 894.6 248.2 896.5C239.8 898 222.9 903.7 202 912.3C189.3 917.5 183.3 919.5 158.1 927.1C152.3 928.8 137 934.8 124.1 940.5C94.7 953.3 89.1 955.1 65.5 959.8C48 963.3 45.9 963.9 40.5 967.6C32.7 972.7 16.3 989 11.5 996.2C8.59998 1000.6 7.59998 1003.3 6.99998 1008.8C6.49998 1012.6 5.19999 1020.2 4.09999 1025.6C-2.50001 1058.5 -0.800015 1079.3 9.49998 1090.8C16.7 1098.7 19.2 1099.5 57.7 1104C125 1112 204.2 1119 271.5 1122.9C348 1127.4 384.1 1128.4 471 1128.4C549.1 1128.4 570.9 1127.9 633.5 1124.9C771.4 1118.3 912.5 1101.2 1035.4 1076C1046.1 1073.8 1055.2 1072 1055.4 1072C1056.3 1072 1060 1064.2 1062.2 1058C1066.2 1046.6 1065.4 1017.8 1060.6 998.7C1054.7 975.4 1040.9 959 1017.4 947.1C1002.7 939.8 988.9 935.5 955 927.9C942.6 925.1 927.9 921.3 922.3 919.4C909.4 915.1 903.4 913.7 883.5 910.5C855.9 906.1 846.6 903.5 834.7 897.3C818.2 888.6 807.6 872.3 801.6 846.1C799.7 838 801 830.6 807 814C821 775.5 821.5 773.4 821.4 744C821.4 719.9 820.5 708.5 813.9 651.5C803.8 563.6 793.4 486.3 790 474.2C783.7 451.6 768.2 430.8 748.9 418.7C734.9 410 724.9 406.8 685.4 398.5C646.2 390.2 615.7 381 608.1 375.2C593 363.7 586.6 341.5 591.7 318.3C593.4 310.6 601.4 293 603.6 292.3C604.4 292 605 296.3 605.5 305.7C606.3 321.3 607.2 328.1 609.6 335.8C612.5 344.8 619.9 350.5 621.3 344.7C622.7 339.2 624 323.7 625 301.5C625.6 288.3 626.8 271.9 627.6 265C629.1 253.2 630.6 246.5 641.4 205.7C646.2 187.5 649 173.1 649 166.3C649 160.3 646.2 157.6 640.9 158.3C637.2 158.8 637 158.7 636.4 155.3C636 153.3 636.1 140.9 636.6 127.6C637.9 91.7001 637.7 74.7001 635.6 67.1001C630 46.5001 612.5 26.3001 590.3 15.0001C569.7 4.50009 563.3 -6.39991 553.4 -47.9999C544.5 -85.2999 536.9 -113.6 531.1 -130.3C529.5 -134.8 527.5 -141.1 526.6 -144.2C525.7 -147.3 524.5 -150.2 524 -150.5C523.5 -150.8 522.4 -148.7 521.6 -145.8ZM358.2 600.2C364.6 611.4 369.1 621.2 373.5 633.5C375.9 640.1 381.5 654.7 386 666C397.7 695.3 399.4 701.9 399.4 720.5C399.4 737.7 398.3 745.9 390.4 786.5C383.4 822.2 380.4 834.8 378 838.8C375.7 842.6 374.8 842.7 372 839.7C368.6 836.2 331.6 778.2 327.7 770.5C321.3 757.7 320.9 755.6 322.5 744.4C323.3 738.9 325.7 725.7 328 715C330.3 704.3 335.9 676.8 340.6 654C350.8 603.6 353 594 353.9 594C354.3 594 356.2 596.8 358.2 600.2Z" fill="#1F1F1F"/>
</svg>
